<svg width="70" height="90" viewBox="0 0 70 90" fill="none" xmlns="http://www.w3.org/2000/svg">
<path d="M34.304 89.659C27.6563 89.659 21.7614 88.5226 16.6194 86.2499C11.5057 83.9488 7.47164 80.7812 4.51709 76.7471C1.56254 72.713 0.0568628 68.0681 4.46737e-05 62.8124H21.2216C21.3069 64.7158 21.9177 66.4062 23.054 67.8834C24.1904 69.3323 25.7387 70.4687 27.6989 71.2925C29.6591 72.1164 31.8892 72.5283 34.3892 72.5283C36.8892 72.5283 39.091 72.088 40.9944 71.2073C42.9262 70.2982 44.4319 69.0624 45.5114 67.4999C46.591 65.909 47.1165 64.0908 47.0881 62.0454C47.1165 59.9999 46.5341 58.1817 45.341 56.5908C44.1478 54.9999 42.4574 53.7641 40.2699 52.8834C38.1108 52.0028 35.554 51.5624 32.5995 51.5624H24.1194V36.5624H32.5995C35.1847 36.5624 37.4574 36.1363 39.4177 35.284C41.4063 34.4317 42.9546 33.2385 44.0625 31.7045C45.1705 30.142 45.7103 28.3522 45.6819 26.3351C45.7103 24.3749 45.2415 22.6562 44.2756 21.1789C43.3381 19.6732 42.0171 18.5084 40.3125 17.6846C38.6364 16.8607 36.6904 16.4488 34.4745 16.4488C32.1449 16.4488 30.0285 16.8607 28.125 17.6846C26.25 18.5084 24.7586 19.6732 23.6506 21.1789C22.5427 22.6846 21.9603 24.4317 21.9035 26.4204H1.7472C1.80402 21.2215 3.25289 16.6476 6.0938 12.6988C8.9347 8.7215 12.7983 5.6107 17.6847 3.36639C22.5995 1.12207 28.1961 -9.20296e-05 34.4745 -9.20296e-05C40.7245 -9.20296e-05 46.2216 1.09366 50.966 3.28116C55.7103 5.46866 59.4035 8.45161 62.0455 12.23C64.6875 15.98 66.0086 20.2272 66.0086 24.9715C66.037 29.8863 64.4319 33.9346 61.1932 37.1164C57.983 40.2982 53.8495 42.2584 48.7927 42.9971V43.6789C55.554 44.4743 60.6535 46.6618 64.091 50.2414C67.5569 53.8209 69.2756 58.2954 69.2472 63.6647C69.2472 68.7215 67.7557 73.2101 64.7728 77.1306C61.8182 81.0226 57.6989 84.0908 52.4148 86.3351C47.1591 88.551 41.1222 89.659 34.304 89.659Z" fill="url(#paint0_linear_1_3703)"/>
<defs>
<linearGradient id="paint0_linear_1_3703" x1="34.6929" y1="-27.5342" x2="163.932" y2="70.7953" gradientUnits="userSpaceOnUse">
<stop stop-color="#8BD7DC"/>
<stop offset="1" stop-color="#1246A9"/>
</linearGradient>
</defs>
</svg>
