<svg width="146" height="18" viewBox="0 0 146 18" fill="none" xmlns="http://www.w3.org/2000/svg">
<path d="M5.67436e-05 17.0879V0.287889H3.88806V17.0879H5.67436e-05ZM7.87506 17.0879V0.287889H11.0911L21.0031 12.3839H19.4431V0.287889H23.2831V17.0879H20.0911L10.1551 4.99189H11.7151V17.0879H7.87506ZM27.2579 17.0879V0.287889H30.4739L40.3859 12.3839H38.8259V0.287889H42.6659V17.0879H39.4739L29.5379 4.99189H31.0979V17.0879H27.2579ZM54.8007 17.3759C53.4727 17.3759 52.2407 17.1599 51.1047 16.7279C49.9847 16.2959 49.0087 15.6879 48.1767 14.9039C47.3607 14.1199 46.7207 13.1999 46.2567 12.1439C45.8087 11.0879 45.5847 9.93589 45.5847 8.68789C45.5847 7.43989 45.8087 6.28789 46.2567 5.23189C46.7207 4.17589 47.3687 3.25589 48.2007 2.47189C49.0327 1.68789 50.0087 1.07989 51.1287 0.647889C52.2487 0.21589 53.4647 -0.000109673 54.7767 -0.000109673C56.1047 -0.000109673 57.3207 0.21589 58.4247 0.647889C59.5447 1.07989 60.5127 1.68789 61.3287 2.47189C62.1607 3.25589 62.8087 4.17589 63.2727 5.23189C63.7367 6.27189 63.9687 7.42389 63.9687 8.68789C63.9687 9.93589 63.7367 11.0959 63.2727 12.1679C62.8087 13.2239 62.1607 14.1439 61.3287 14.9279C60.5127 15.6959 59.5447 16.2959 58.4247 16.7279C57.3207 17.1599 56.1127 17.3759 54.8007 17.3759ZM54.7767 14.0639C55.5287 14.0639 56.2167 13.9359 56.8407 13.6799C57.4807 13.4239 58.0407 13.0559 58.5207 12.5759C59.0007 12.0959 59.3687 11.5279 59.6247 10.8719C59.8967 10.2159 60.0327 9.48789 60.0327 8.68789C60.0327 7.88789 59.8967 7.15989 59.6247 6.50389C59.3687 5.84789 59.0007 5.27989 58.5207 4.79989C58.0567 4.31989 57.5047 3.95189 56.8647 3.69589C56.2247 3.43989 55.5287 3.31189 54.7767 3.31189C54.0247 3.31189 53.3287 3.43989 52.6887 3.69589C52.0647 3.95189 51.5127 4.31989 51.0327 4.79989C50.5527 5.27989 50.1767 5.84789 49.9047 6.50389C49.6487 7.15989 49.5207 7.88789 49.5207 8.68789C49.5207 9.47189 49.6487 10.1999 49.9047 10.8719C50.1767 11.5279 50.5447 12.0959 51.0087 12.5759C51.4887 13.0559 52.0487 13.4239 52.6887 13.6799C53.3287 13.9359 54.0247 14.0639 54.7767 14.0639ZM66.8907 17.0879V0.287889H70.1067L77.2587 12.1439H75.5547L82.5867 0.287889H85.7787L85.8267 17.0879H82.1787L82.1547 5.87989H82.8267L77.2107 15.3119H75.4587L69.7227 5.87989H70.5387V17.0879H66.8907ZM87.6046 17.0879L95.0926 0.287889H98.9326L106.445 17.0879H102.365L96.2206 2.25589H97.7566L91.5886 17.0879H87.6046ZM91.3486 13.4879L92.3806 10.5359H101.021L102.077 13.4879H91.3486Z" fill="white"/>
<path d="M109.34 17.2799C108.7 17.2799 108.148 17.0639 107.684 16.6319C107.236 16.1839 107.012 15.6159 107.012 14.9279C107.012 14.2399 107.236 13.6879 107.684 13.2719C108.148 12.8399 108.7 12.6239 109.34 12.6239C109.996 12.6239 110.548 12.8399 110.996 13.2719C111.444 13.6879 111.668 14.2399 111.668 14.9279C111.668 15.6159 111.444 16.1839 110.996 16.6319C110.548 17.0639 109.996 17.2799 109.34 17.2799ZM118.595 17.0879L111.347 0.287889H115.547L121.883 15.1679H119.411L125.843 0.287889H129.707L122.435 17.0879H118.595ZM138.962 17.3759C137.666 17.3759 136.458 17.1679 135.338 16.7519C134.234 16.3199 133.274 15.7119 132.458 14.9279C131.642 14.1439 131.002 13.2239 130.538 12.1679C130.09 11.1119 129.866 9.95189 129.866 8.68789C129.866 7.42389 130.09 6.26389 130.538 5.20789C131.002 4.15189 131.642 3.23189 132.458 2.44789C133.29 1.66389 134.258 1.06389 135.362 0.647889C136.466 0.21589 137.674 -0.000109673 138.986 -0.000109673C140.442 -0.000109673 141.754 0.25589 142.922 0.76789C144.106 1.26389 145.098 1.99989 145.898 2.97589L143.402 5.27989C142.826 4.62389 142.186 4.13589 141.482 3.81589C140.778 3.47989 140.01 3.31189 139.178 3.31189C138.394 3.31189 137.674 3.43989 137.018 3.69589C136.362 3.95189 135.794 4.31989 135.314 4.79989C134.834 5.27989 134.458 5.84789 134.186 6.50389C133.93 7.15989 133.802 7.88789 133.802 8.68789C133.802 9.48789 133.93 10.2159 134.186 10.8719C134.458 11.5279 134.834 12.0959 135.314 12.5759C135.794 13.0559 136.362 13.4239 137.018 13.6799C137.674 13.9359 138.394 14.0639 139.178 14.0639C140.01 14.0639 140.778 13.9039 141.482 13.5839C142.186 13.2479 142.826 12.7439 143.402 12.0719L145.898 14.3759C145.098 15.3519 144.106 16.0959 142.922 16.6079C141.754 17.1199 140.434 17.3759 138.962 17.3759Z" fill="#00B1E9"/>
</svg>
